<?xml version="1.0" encoding="UTF-8" standalone="no"?>
<!-- Created with Inkscape (http://www.inkscape.org/) -->

<svg
   width="300"
   height="50"
   viewBox="0 0 300 50"
   version="1.1"
   id="svg5"
   inkscape:version="1.2.1 (9c6d41e410, 2022-07-14)"
   sodipodi:docname="ProPulse-navBrand.svg"
   inkscape:export-filename="ProPulse-navBrand.svg"
   inkscape:export-xdpi="96"
   inkscape:export-ydpi="96"
   xmlns:inkscape="http://www.inkscape.org/namespaces/inkscape"
   xmlns:sodipodi="http://sodipodi.sourceforge.net/DTD/sodipodi-0.dtd"
   xmlns="http://www.w3.org/2000/svg"
   xmlns:svg="http://www.w3.org/2000/svg">
  <sodipodi:namedview
     id="namedview7"
     pagecolor="#505050"
     bordercolor="#eeeeee"
     borderopacity="1"
     inkscape:showpageshadow="0"
     inkscape:pageopacity="0"
     inkscape:pagecheckerboard="0"
     inkscape:deskcolor="#505050"
     inkscape:document-units="mm"
     showgrid="false"
     inkscape:zoom="4.1776837"
     inkscape:cx="151.63905"
     inkscape:cy="79.469875"
     inkscape:window-width="1920"
     inkscape:window-height="1009"
     inkscape:window-x="3832"
     inkscape:window-y="1072"
     inkscape:window-maximized="1"
     inkscape:current-layer="layer1" />
  <defs
     id="defs2">
    <rect
       x="0"
       y="0"
       width="160"
       height="160"
       id="rect236" />
  </defs>
  <g
     inkscape:label="Layer 1"
     inkscape:groupmode="layer"
     id="layer1"
     style="display:inline">
    <g
       aria-label="PRO"
       transform="matrix(0.73817482,0,0,0.68591198,-3.8401985,-6.5611115)"
       id="pro"
       style="font-size:68px;font-family:'Zurich XBlk BT';-inkscape-font-specification:'Zurich XBlk BT';text-align:center;white-space:pre;shape-inside:url(#rect236);display:inline;fill:#006496;stroke:#ffffff;stroke-width:2.10803;stroke-linecap:round;stroke-linejoin:round">
      <path
         d="m 24.567383,22.146484 v 10.19336 q 0.265625,0.0332 0.597656,0.06641 0.332031,0 0.896484,0 2.988282,0 4.482422,-1.328125 1.527344,-1.361328 1.527344,-4.017578 0,-2.523438 -1.560547,-3.71875 -1.560547,-1.195313 -4.847656,-1.195313 z M 6.1396484,60.164062 V 11.189453 H 29.946289 q 10.458984,0 15.572266,3.951172 5.113281,3.951172 5.113281,11.986328 0,8.101563 -5.113281,12.285156 Q 40.438477,43.5625 30.577148,43.5625 h -6.009765 v 16.601562 z"
         id="path350" />
      <path
         d="m 75.268555,31.410156 q 0.232422,0.0332 0.498047,0.06641 0.298828,0 0.830078,0 3.253906,0 4.980468,-1.294921 1.759766,-1.328125 1.759766,-3.751954 0,-2.257812 -1.427734,-3.287109 -1.427735,-1.0625 -4.548828,-1.0625 -0.796875,0 -1.228516,0.0332 -0.431641,0 -0.863281,0.0332 z M 56.807617,60.164062 V 11.189453 h 25.035156 q 11.023438,0 15.40625,2.855469 4.382817,2.822265 4.382817,9.595703 0,4.416016 -2.423832,7.304687 -2.423828,2.855469 -7.238281,4.117188 4.482421,0.730469 6.375,2.988281 1.925783,2.257813 2.689453,8.167969 l 0.66406,5.3125 q 0.13281,1.328125 0.49805,3.287109 0.36523,1.925782 1.12891,5.345703 H 84.631836 q -0.630859,-2.457031 -0.962891,-3.984375 -0.298828,-1.527343 -0.464843,-2.822265 l -0.464844,-3.585938 q -0.697266,-4.847656 -1.859375,-6.142578 -1.16211,-1.294922 -3.917969,-1.294922 -0.664062,0 -1.029297,0.0332 -0.365234,0 -0.697265,0.06641 v 17.730468 z"
         id="path352" />
      <path
         d="m 130.9502,60.927734 q -11.6211,0 -17.9961,-6.574218 -6.3418,-6.607422 -6.3418,-18.59375 0,-12.152344 6.47461,-18.759766 6.50782,-6.607422 18.46094,-6.607422 11.88672,0 18.32813,6.607422 6.4414,6.574219 6.4414,18.693359 0,12.285157 -6.50781,18.759766 -6.47461,6.474609 -18.85937,6.474609 z m 0.53125,-37.818359 q -2.95508,0 -4.1836,2.722656 -1.19531,2.689453 -1.19531,10.060547 0,6.90625 1.19531,9.662109 1.22852,2.722657 4.11719,2.722657 2.95508,0 4.15039,-2.888672 1.22852,-2.888672 1.22852,-10.392578 0,-6.773438 -1.19532,-9.330078 -1.19531,-2.556641 -4.11718,-2.556641 z"
         id="path354" />
    </g>
    <g
       aria-label="PULSE"
       transform="scale(1.0015108,0.99849148)"
       id="pulse"
       style="font-size:46.3601px;font-family:'Zurich XBlk BT';-inkscape-font-specification:'Zurich XBlk BT';text-align:center;text-anchor:middle;fill:#006496;stroke:#ffffff;stroke-width:1.5;stroke-linecap:round;stroke-linejoin:round">
      <path
         d="m 151.41719,8.6672202 v 6.9494878 q 0.18109,0.02264 0.40746,0.04527 0.22637,0 0.6112,0 2.0373,0 3.05596,-0.90547 1.04129,-0.928108 1.04129,-2.739049 0,-1.720395 -1.06393,-2.5353182 -1.06393,-0.8149236 -3.30497,-0.8149236 z M 138.85378,34.586319 V 1.1970869 h 16.23057 q 7.13058,0 10.61664,2.6937754 3.48606,2.6937753 3.48606,8.1718727 0,5.523372 -3.48606,8.375604 -3.46342,2.829596 -10.18654,2.829596 h -4.09726 v 11.318384 z"
         id="path357" />
      <path
         d="m 173.2164,1.1970869 h 12.51813 V 21.841819 q 0,2.127856 0.74702,3.237058 0.76965,1.109201 2.2184,1.109201 1.40348,0 2.17313,-1.154475 0.79229,-1.154475 0.79229,-3.191784 V 1.1970869 h 12.5634 V 21.321173 q 0,7.062672 -3.78034,10.43555 -3.78034,3.350242 -11.74848,3.350242 -4.59527,0 -7.60596,-0.973381 -2.98805,-0.973381 -4.95745,-3.078601 -1.56193,-1.675121 -2.24104,-3.71243 -0.6791,-2.059945 -0.6791,-6.02138 z"
         id="path359" />
      <path
         d="m 235.46751,25.735343 v 8.850976 H 210.43125 V 1.2423605 H 223.3342 V 25.735343 Z"
         id="path361" />
      <path
         d="m 238.07074,23.879128 h 11.99749 v 0.271641 q 0,1.697758 0.76965,2.535318 0.79228,0.814924 2.42213,0.814924 1.42612,0 2.2184,-0.63383 0.81493,-0.656466 0.81493,-1.788304 0,-0.837561 -0.31692,-1.426117 -0.29427,-0.588556 -0.88283,-0.882834 -0.97338,-0.475372 -3.96143,-1.245022 -2.98806,-0.76965 -4.73109,-1.312932 -4.21044,-1.33557 -6.13456,-3.508699 -1.92413,-2.17313 -1.92413,-5.523372 0,-4.9800884 3.98407,-7.7191373 4.00671,-2.76168564 11.22784,-2.76168564 6.5873,0 10.05072,2.37686054 3.48607,2.3542239 3.48607,6.7910303 V 10.568709 H 256.0217 q -0.13582,-1.5166637 -0.8602,-2.2410403 -0.70174,-0.7243766 -2.08258,-0.7243766 -1.19975,0 -1.92413,0.6111928 -0.72437,0.6111927 -0.72437,1.6072105 0,1.8335786 4.05198,2.8069596 1.47139,0.339551 2.35422,0.588555 6.76839,1.810942 9.14525,4.074619 2.3995,2.24104 2.3995,6.225111 0,5.364914 -4.14253,8.511424 -4.11989,3.123874 -11.25047,3.123874 -7.22113,0 -11.09202,-2.603228 -3.87088,-2.625865 -3.87088,-7.470133 0,-0.475372 0,-0.724377 0.0226,-0.271641 0.0453,-0.475372 z"
         id="path363" />
      <path
         d="M 273.42938,34.586319 V 1.1970869 h 24.99099 v 8.5793349 h -12.38231 v 3.6218832 h 11.49947 v 8.579334 h -11.49947 v 3.938798 h 12.81241 v 8.669882 z"
         id="path365" />
    </g>
  </g>
  <g
     inkscape:groupmode="layer"
     id="layer2"
     inkscape:label="Layer 2"
     transform="matrix(1.0030164,0,0,0.65298686,42.126662,-47.458862)"
     sodipodi:insensitive="true">
    <path
       style="fill:none;stroke:#ffffff;stroke-width:2.22113;stroke-linecap:square;stroke-linejoin:round;stroke-dasharray:none;stroke-opacity:1"
       d="M 4.6908496,133.02215 H 26.789251 l 8.035784,-7.25826 9.040254,12.81778 5.357188,-6.43585 H 62.50178 l 5.868267,7.0344 c 6.53019,-10.30082 10.627788,-21.41483 15.44831,-32.25692 l 10.546987,40.7698 4.302645,-14.98437 15.849391,0.0119 6.35749,-10.97191 9.05277,17.06785 4.34019,-10.37706 5.54126,3.70635 h 23.13676"
       id="path1156"
       sodipodi:nodetypes="cccccccccccccccc" />
  </g>
</svg>
